<svg width="31" height="30" viewBox="0 0 31 30" fill="none" xmlns="http://www.w3.org/2000/svg">
<path fill-rule="evenodd" clip-rule="evenodd" d="M15.5238 29.9524C23.7949 29.9524 30.5 23.2473 30.5 14.9762C30.5 6.70507 23.7949 0 15.5238 0C7.25268 0 0.547607 6.70507 0.547607 14.9762C0.547607 23.2473 7.25268 29.9524 15.5238 29.9524ZM11.0238 11H7.0238V22H11.0238V11ZM23.782 11.3433C22.9543 10.4478 21.8596 10 20.4985 10C19.9971 10 19.5412 10.0611 19.1312 10.1835C18.7213 10.3058 18.3751 10.4774 18.0925 10.6983C17.81 10.9192 17.585 11.1243 17.4179 11.3136C17.2591 11.4934 17.1038 11.7028 16.9522 11.9397V10.272H13.0238L13.0358 10.8401C13.0439 11.219 13.0479 12.3865 13.0479 14.3431C13.0479 16.2998 13.0399 18.852 13.024 22H16.9522V15.4554C16.9522 15.0531 16.9958 14.7337 17.0835 14.4968C17.2508 14.0942 17.5033 13.7572 17.8418 13.4851C18.1802 13.2127 18.6 13.0766 19.1016 13.0766C19.786 13.0766 20.2896 13.3113 20.6121 13.7807C20.9344 14.2501 21.0955 14.8991 21.0955 15.7275V21.9996H25.0238V15.2781C25.0235 13.5501 24.6099 12.2386 23.782 11.3433ZM7.58052 5.56731C7.95177 5.18923 8.43639 5 9.03449 5C9.63263 5 10.1121 5.18906 10.4723 5.56731C10.8325 5.94547 11.0164 6.42294 11.0236 7.00004C11.0308 7.56927 10.8488 8.0449 10.4777 8.42687C10.1066 8.80905 9.61828 9 9.01284 9H8.99121C8.40027 9 7.92455 8.80889 7.56431 8.42687C7.20396 8.0449 7.0238 7.56911 7.0238 7.00004C7.0238 6.4229 7.2093 5.94547 7.58052 5.56731Z" fill="#2B0558"/>
</svg>
