<svg width="66" height="66" viewBox="0 0 66 66" fill="none" xmlns="http://www.w3.org/2000/svg">
<path d="M22 5.5V13.75" stroke="#202020" stroke-width="4.125" stroke-miterlimit="10" stroke-linecap="round" stroke-linejoin="round"/>
<path d="M44 5.5V13.75" stroke="#202020" stroke-width="4.125" stroke-miterlimit="10" stroke-linecap="round" stroke-linejoin="round"/>
<path d="M57.75 23.375V37.4825C55.3025 35.53 52.195 34.375 48.8125 34.375C45.43 34.375 42.2675 35.5574 39.7925 37.5649C36.465 40.1774 34.375 44.275 34.375 48.8125C34.375 51.5075 35.145 54.0925 36.465 56.2375C37.4825 57.915 38.8025 59.3725 40.37 60.5H22C12.375 60.5 8.25 55 8.25 46.75V23.375C8.25 15.125 12.375 9.625 22 9.625H44C53.625 9.625 57.75 15.125 57.75 23.375Z" stroke="#202020" stroke-width="4.125" stroke-miterlimit="10" stroke-linecap="round" stroke-linejoin="round"/>
<path d="M19.25 30.25H35.75" stroke="#FF761B" stroke-width="4.125" stroke-miterlimit="10" stroke-linecap="round" stroke-linejoin="round"/>
<path d="M19.25 44H26.455" stroke="#FF761B" stroke-width="4.125" stroke-miterlimit="10" stroke-linecap="round" stroke-linejoin="round"/>
<path d="M63.25 48.8125C63.25 51.5075 62.48 54.0925 61.16 56.2375C60.39 57.5575 59.4275 58.7125 58.3 59.6475C55.77 61.9025 52.47 63.25 48.8125 63.25C45.65 63.25 42.735 62.2325 40.37 60.5C38.8025 59.3725 37.4825 57.915 36.465 56.2375C35.145 54.0925 34.375 51.5075 34.375 48.8125C34.375 44.275 36.465 40.1774 39.7925 37.5649C42.2675 35.5574 45.43 34.375 48.8125 34.375C52.195 34.375 55.3025 35.53 57.75 37.4825C61.105 40.1225 63.25 44.22 63.25 48.8125Z" stroke="#202020" stroke-width="4.125" stroke-miterlimit="10" stroke-linecap="round" stroke-linejoin="round"/>
<path d="M48.8125 55.6875C48.8125 51.8925 51.8925 48.8125 55.6875 48.8125C51.8925 48.8125 48.8125 45.7325 48.8125 41.9375C48.8125 45.7325 45.7325 48.8125 41.9375 48.8125C45.7325 48.8125 48.8125 51.8925 48.8125 55.6875Z" stroke="#5705BA" stroke-width="4.125" stroke-linecap="round" stroke-linejoin="round"/>
</svg>
