<svg width="66" height="66" viewBox="0 0 66 66" fill="none" xmlns="http://www.w3.org/2000/svg">
<path d="M12.1131 42.6975L24.5706 55.155C29.6856 60.27 37.9906 60.27 43.1331 55.155L55.2056 43.0825C60.3206 37.9675 60.3206 29.6625 55.2056 24.52L42.7206 12.09C40.1081 9.47751 36.5056 8.07501 32.8206 8.26751L19.0706 8.92751C13.5706 9.17501 9.19808 13.5475 8.92308 19.02L8.26308 32.77C8.09808 36.4825 9.50058 40.085 12.1131 42.6975Z" stroke="#202020" stroke-width="4.125" stroke-linecap="round" stroke-linejoin="round"/>
<path d="M26.7705 33.6223C30.5675 33.6223 33.6455 30.5443 33.6455 26.7473C33.6455 22.9504 30.5675 19.8723 26.7705 19.8723C22.9736 19.8723 19.8955 22.9504 19.8955 26.7473C19.8955 30.5443 22.9736 33.6223 26.7705 33.6223Z" stroke="#FF761B" stroke-width="4.125" stroke-linecap="round"/>
<path d="M36.3955 47.3723L47.3955 36.3723" stroke="#5705BA" stroke-width="4.125" stroke-miterlimit="10" stroke-linecap="round" stroke-linejoin="round"/>
</svg>
