<svg width="31" height="30" viewBox="0 0 31 30" fill="none" xmlns="http://www.w3.org/2000/svg">
<path fill-rule="evenodd" clip-rule="evenodd" d="M15.5714 29.9524C23.8425 29.9524 30.5476 23.2473 30.5476 14.9762C30.5476 6.70507 23.8425 0 15.5714 0C7.30028 0 0.595215 6.70507 0.595215 14.9762C0.595215 23.2473 7.30028 29.9524 15.5714 29.9524ZM23.0737 7L17.1174 13.7749H17.117L23.5952 23H18.8308L14.4684 16.7878L9.00676 23H7.59521L13.8418 15.8955L7.59521 7H12.3596L16.4904 12.8826L21.6623 7H23.0737ZM14.5512 15.0881L15.1841 15.9738V15.9742L19.4949 22.0075H21.6629L16.3803 14.6137L15.7474 13.728L11.6834 8.03974H9.51536L14.5512 15.0881Z" fill="#2B0558"/>
</svg>
